<svg id="Capa_1" data-name="Capa 1" xmlns="http://www.w3.org/2000/svg" viewBox="0 0 125.94 125.94"><defs><style>.cls-1{fill:#5e6c6d;}.cls-2{fill:none;stroke:#d39d90;stroke-miterlimit:10;}</style></defs><path class="cls-1" d="M90.71,37.67a1,1,0,1,0,1,1A1,1,0,0,0,90.71,37.67Z" transform="translate(-2.23 -2.86)"/><path class="cls-1" d="M86.67,37.67a1,1,0,1,0,1,1A1,1,0,0,0,86.67,37.67Z" transform="translate(-2.23 -2.86)"/><path class="cls-1" d="M82.63,37.67a1,1,0,1,0,1,1A1,1,0,0,0,82.63,37.67Z" transform="translate(-2.23 -2.86)"/><path class="cls-1" d="M96.26,49.92a.94.94,0,0,0-.93.94V94.37A1.59,1.59,0,0,1,93.74,96H36.66a1.58,1.58,0,0,1-1.58-1.58v-9a.94.94,0,0,0-1.88,0v9a3.46,3.46,0,0,0,3.46,3.46H93.74a3.46,3.46,0,0,0,3.46-3.46V50.86A.94.94,0,0,0,96.26,49.92Z" transform="translate(-2.23 -2.86)"/><path class="cls-1" d="M93.74,33.83H36.66a3.47,3.47,0,0,0-3.46,3.46V81a.94.94,0,1,0,1.88,0V43.53H95.33v2.95a.94.94,0,1,0,1.87,0V37.29A3.46,3.46,0,0,0,93.74,33.83ZM35.08,41.66V37.29a1.59,1.59,0,0,1,1.58-1.59H93.74a1.6,1.6,0,0,1,1.59,1.59v4.37Z" transform="translate(-2.23 -2.86)"/><path class="cls-1" d="M75.3,48.48H55.1a3.46,3.46,0,0,0-3.46,3.46v.32H42.09a3.47,3.47,0,0,0-3.46,3.47v28a3.46,3.46,0,0,0,3.46,3.46h9.55v.33A3.46,3.46,0,0,0,55.1,91H75.3a3.47,3.47,0,0,0,3.47-3.46v-.33h9.54a3.46,3.46,0,0,0,3.46-3.46v-28a3.47,3.47,0,0,0-3.46-3.47H78.77v-.32a3.47,3.47,0,0,0-3.47-3.46Zm3.47,10H85.6V73H78.77ZM51.64,73H44.8V58.43h6.84ZM42.09,85.35a1.59,1.59,0,0,1-1.58-1.59v-28a1.59,1.59,0,0,1,1.58-1.59h9.55v2.42H43.86a.94.94,0,0,0-.94.94V73.91a.94.94,0,0,0,.94.94h7.78V77H43.86a.94.94,0,0,0,0,1.88h7.78v2.17H45.82a.94.94,0,1,0,0,1.87h5.82v2.42Zm34.8,2.2a1.59,1.59,0,0,1-1.59,1.59H55.1a1.59,1.59,0,0,1-1.59-1.59V51.94a1.59,1.59,0,0,1,1.59-1.59H75.3a1.59,1.59,0,0,1,1.59,1.59ZM88.31,54.14a1.59,1.59,0,0,1,1.59,1.59v28a1.6,1.6,0,0,1-1.59,1.59H78.77V82.93h5.81a.94.94,0,0,0,0-1.88H78.77V78.89h7.77a.94.94,0,0,0,0-1.88H78.77V74.85h7.77a.94.94,0,0,0,.94-.94V57.49a.94.94,0,0,0-.94-.94H78.77V54.14Z" transform="translate(-2.23 -2.86)"/><path class="cls-1" d="M73.54,52.77H56.87a.94.94,0,0,0-.94.94v5.91a.94.94,0,1,0,1.88,0v-5H72.6V76.76H57.81V64a.94.94,0,1,0-1.88,0V77.7a.94.94,0,0,0,.94.94H73.54a.94.94,0,0,0,.93-.94v-24a.94.94,0,0,0-.93-.94Z" transform="translate(-2.23 -2.86)"/><path class="cls-1" d="M71.58,84.84H58.82a.94.94,0,0,0,0,1.88H71.58a.94.94,0,1,0,0-1.88Z" transform="translate(-2.23 -2.86)"/><path class="cls-1" d="M73.54,80.8H56.87a.94.94,0,0,0,0,1.88H73.54a.94.94,0,0,0,0-1.88Z" transform="translate(-2.23 -2.86)"/><circle class="cls-2" cx="62.97" cy="62.97" r="62.47"/></svg>