<?xml version="1.0" encoding="utf-8"?>
<!-- Generator: Adobe Illustrator 16.0.0, SVG Export Plug-In . SVG Version: 6.00 Build 0)  -->
<!DOCTYPE svg PUBLIC "-//W3C//DTD SVG 1.1//EN" "http://www.w3.org/Graphics/SVG/1.1/DTD/svg11.dtd">
<svg version="1.1" id="Capa_1" xmlns="http://www.w3.org/2000/svg" xmlns:xlink="http://www.w3.org/1999/xlink" x="0px" y="0px"
	 width="64px" height="64px" viewBox="224 224 64 64" enable-background="new 224 224 64 64" xml:space="preserve">
<g>
	<g>
		<path fill="#5E6C6D" d="M281.507,227.842c-0.558,0-1.011,0.452-1.011,1.01c0,0.558,0.453,1.01,1.011,1.01s1.01-0.452,1.01-1.01
			C282.517,228.294,282.064,227.842,281.507,227.842z"/>
		<path fill="#5E6C6D" d="M277.466,227.842c-0.558,0-1.01,0.452-1.01,1.01c0,0.558,0.452,1.01,1.01,1.01s1.011-0.452,1.011-1.01
			C278.477,228.294,278.023,227.842,277.466,227.842z"/>
		<path fill="#5E6C6D" d="M273.426,227.842c-0.559,0-1.011,0.452-1.011,1.01c0,0.558,0.452,1.01,1.011,1.01
			c0.558,0,1.01-0.452,1.01-1.01C274.436,228.294,273.983,227.842,273.426,227.842z"/>
		<path fill="#5E6C6D" d="M287.063,240.094c-0.518,0-0.938,0.42-0.938,0.938v43.506c0,0.875-0.713,1.588-1.588,1.588h-57.074
			c-0.875,0-1.588-0.713-1.588-1.588v-8.986c0-0.518-0.419-0.938-0.938-0.938s-0.938,0.42-0.938,0.938v8.986
			c0,1.909,1.554,3.463,3.463,3.463h57.074c1.909,0,3.463-1.554,3.463-3.463v-43.506C288,240.514,287.58,240.094,287.063,240.094z"
			/>
		<path fill="#5E6C6D" d="M284.537,224h-57.074c-1.909,0-3.463,1.554-3.463,3.463v43.696c0,0.518,0.419,0.938,0.938,0.938
			s0.938-0.42,0.938-0.938v-37.456h60.25v2.951c0,0.518,0.42,0.938,0.938,0.938s0.938-0.42,0.938-0.938v-9.191
			C288,225.554,286.446,224,284.537,224z M225.875,231.829v-4.366c0-0.875,0.712-1.588,1.588-1.588h57.074
			c0.875,0,1.588,0.712,1.588,1.588v4.366H225.875z"/>
		<path fill="#5E6C6D" d="M266.102,238.648h-20.203c-1.909,0-3.463,1.553-3.463,3.463v0.325h-9.543c-1.91,0-3.463,1.554-3.463,3.463
			v28.032c0,1.909,1.553,3.463,3.463,3.463h9.543v0.325c0,1.909,1.554,3.463,3.463,3.463h20.203c1.91,0,3.463-1.554,3.463-3.463
			v-0.325h9.543c1.91,0,3.463-1.554,3.463-3.463v-28.032c0-1.909-1.553-3.463-3.463-3.463h-9.543v-0.325
			C269.564,240.201,268.012,238.648,266.102,238.648L266.102,238.648z M269.564,248.604h6.838v14.54h-6.838V248.604z
			 M242.436,263.144h-6.838v-14.54h6.838V263.144z M232.893,275.519c-0.875,0-1.588-0.713-1.588-1.589v-28.031
			c0-0.875,0.712-1.588,1.588-1.588h9.543v2.418h-7.775c-0.518,0-0.938,0.42-0.938,0.938v16.415c0,0.518,0.42,0.938,0.938,0.938
			h7.775v2.166h-7.775c-0.518,0-0.938,0.42-0.938,0.938s0.42,0.938,0.938,0.938h7.775v2.165h-5.818c-0.518,0-0.938,0.42-0.938,0.938
			s0.419,0.938,0.938,0.938h5.818v2.419H232.893z M267.689,277.719c0,0.875-0.712,1.588-1.588,1.588h-20.203
			c-0.875,0-1.588-0.713-1.588-1.588v-35.608c0-0.876,0.712-1.588,1.588-1.588h20.203c0.876,0,1.588,0.712,1.588,1.588V277.719z
			 M279.107,244.311c0.875,0,1.588,0.712,1.588,1.588v28.032c0,0.875-0.713,1.588-1.588,1.588h-9.543V273.1h5.818
			c0.518,0,0.938-0.419,0.938-0.938c0-0.518-0.42-0.938-0.938-0.938h-5.818v-2.165h7.775c0.518,0,0.938-0.42,0.938-0.938
			s-0.42-0.938-0.938-0.938h-7.775v-2.166h7.775c0.518,0,0.938-0.42,0.938-0.938v-16.415c0-0.518-0.42-0.938-0.938-0.938h-7.775
			v-2.418H279.107z"/>
		<path fill="#5E6C6D" d="M264.334,242.941h-16.668c-0.518,0-0.938,0.42-0.938,0.938v5.914c0,0.518,0.42,0.938,0.938,0.938
			c0.518,0,0.938-0.42,0.938-0.938v-4.977h14.793v22.116h-14.793V254.17c0-0.518-0.419-0.938-0.938-0.938
			c-0.518,0-0.938,0.42-0.938,0.938v13.7c0,0.518,0.42,0.938,0.938,0.938h16.668c0.518,0,0.938-0.42,0.938-0.938v-23.991
			C265.271,243.361,264.852,242.941,264.334,242.941L264.334,242.941z"/>
		<path fill="#5E6C6D" d="M262.377,275.013h-12.754c-0.518,0-0.938,0.42-0.938,0.938c0,0.519,0.42,0.938,0.938,0.938h12.754
			c0.518,0,0.938-0.419,0.938-0.938C263.314,275.433,262.895,275.013,262.377,275.013z"/>
		<path fill="#5E6C6D" d="M264.334,270.973h-16.668c-0.518,0-0.938,0.42-0.938,0.938s0.42,0.938,0.938,0.938h16.668
			c0.518,0,0.938-0.42,0.938-0.938S264.852,270.973,264.334,270.973z"/>
	</g>
</g>
</svg>
