<svg id="Capa_1" data-name="Capa 1" xmlns="http://www.w3.org/2000/svg" viewBox="0 0 125.94 125.94"><defs><style>.cls-1{fill:none;stroke:#d39d90;stroke-miterlimit:10;}.cls-2{fill:#5e6c6d;}</style></defs><circle class="cls-1" cx="62.97" cy="62.97" r="62.47"/><path class="cls-2" d="M95.48,37H60.12a3.47,3.47,0,0,0-3.46,3.47v14H38.4a3.47,3.47,0,0,0-3.46,3.46V76.38a.94.94,0,0,0,1.88,0V57.87a1.59,1.59,0,0,1,1.59-1.58H61.13a.94.94,0,1,0,0-1.88H58.54v-14a1.59,1.59,0,0,1,1.58-1.59H95.48a1.59,1.59,0,0,1,1.59,1.59v9.44a.94.94,0,1,0,1.87,0V40.45A3.47,3.47,0,0,0,95.48,37Z" transform="translate(-2.23 -2.86)"/><path class="cls-2" d="M98,53.33a.94.94,0,0,0-.93.94V65.7a1.59,1.59,0,0,1-1.59,1.59H92.7a.94.94,0,0,0-.94.94v5.82l-6.48-6.48a.91.91,0,0,0-.66-.28h-7.4V60c.2-.2.4-.41.58-.62a20.78,20.78,0,0,0,8.52,5.69,1,1,0,0,0,.32.06A.94.94,0,0,0,87,63.31,19,19,0,0,1,79,57.91a25.46,25.46,0,0,0,4.7-12h2.81a.94.94,0,0,0,0-1.87H78.74V42a.94.94,0,0,0-1.88,0v2.1H69.09a.94.94,0,1,0,0,1.87H81.82a24.29,24.29,0,0,1-4,10.45,22,22,0,0,1-2.73-5.27.94.94,0,1,0-1.77.65,27.82,27.82,0,0,0,1.18,2.73,3.38,3.38,0,0,0-.72-.08H65.52a.94.94,0,1,0,0,1.88h8.24a1.59,1.59,0,0,1,1.59,1.59V83.13a1.59,1.59,0,0,1-1.59,1.59H49.27a1,1,0,0,0-.67.27l-6.48,6.48V85.65a.94.94,0,0,0-.94-.93H38.41a1.59,1.59,0,0,1-1.59-1.59V80.76a.94.94,0,1,0-1.88,0v2.37a3.46,3.46,0,0,0,3.47,3.46h1.83v7.15a.93.93,0,0,0,.58.86.92.92,0,0,0,.36.07.9.9,0,0,0,.66-.27l7.81-7.81H73.76a3.46,3.46,0,0,0,3.46-3.46v-14h7L92,77a.89.89,0,0,0,1,.2.92.92,0,0,0,.58-.86V69.16h1.84a3.46,3.46,0,0,0,3.46-3.46V54.27A.94.94,0,0,0,98,53.33Z" transform="translate(-2.23 -2.86)"/><path class="cls-2" d="M48.19,82,50,77.09H62.15L64,81.94a.94.94,0,0,0,.88.61,1,1,0,0,0,.33-.06.93.93,0,0,0,.54-1.21L57.46,59.37v0a1.45,1.45,0,0,0-1.34-.89h0a1.42,1.42,0,0,0-1.33.9v0L46.44,81.28A.93.93,0,0,0,47,82.49,1,1,0,0,0,48.19,82Zm7.93-20.83,5.32,14.1H50.75Z" transform="translate(-2.23 -2.86)"/></svg>