<?xml version="1.0" encoding="utf-8"?>
<!-- Generator: Adobe Illustrator 16.0.0, SVG Export Plug-In . SVG Version: 6.00 Build 0)  -->
<!DOCTYPE svg PUBLIC "-//W3C//DTD SVG 1.1//EN" "http://www.w3.org/Graphics/SVG/1.1/DTD/svg11.dtd">
<svg version="1.1" id="Capa_1" xmlns="http://www.w3.org/2000/svg" xmlns:xlink="http://www.w3.org/1999/xlink" x="0px" y="0px"
	 width="64px" height="64px" viewBox="224 224 64 64" enable-background="new 224 224 64 64" xml:space="preserve">
<g>
	<g>
		<path fill="#5E6C6D" d="M284.537,227.156h-35.356c-1.909,0-3.462,1.554-3.462,3.464v13.962h-18.256
			c-1.909,0-3.463,1.554-3.463,3.463v18.51c0,0.518,0.42,0.938,0.938,0.938s0.938-0.42,0.938-0.938v-18.51
			c0-0.876,0.712-1.588,1.588-1.588h22.723c0.518,0,0.938-0.42,0.938-0.938s-0.419-0.938-0.938-0.938h-2.592V230.62
			c0-0.876,0.712-1.589,1.587-1.589h35.356c0.875,0,1.588,0.713,1.588,1.589v9.442c0,0.518,0.42,0.938,0.938,0.938
			s0.938-0.42,0.938-0.938v-9.442C288,228.71,286.447,227.156,284.537,227.156L284.537,227.156z"/>
		<path fill="#5E6C6D" d="M287.063,243.506c-0.518,0-0.938,0.419-0.938,0.938v11.431c0,0.876-0.713,1.587-1.588,1.587h-2.778
			c-0.519,0-0.938,0.42-0.938,0.938v5.818l-6.481-6.48c-0.176-0.176-0.414-0.275-0.662-0.275h-7.396v-7.291
			c0.199-0.205,0.393-0.411,0.58-0.62c2.05,2.283,4.807,4.348,8.518,5.69c0.105,0.038,0.213,0.057,0.318,0.057
			c0.385,0,0.744-0.237,0.883-0.619c0.176-0.487-0.076-1.024-0.563-1.2c-3.49-1.264-6.059-3.231-7.947-5.399
			c3.532-4.71,4.461-9.917,4.697-11.975h2.805c0.518,0,0.938-0.42,0.938-0.938c0-0.519-0.42-0.938-0.938-0.938h-7.775v-2.094
			c0-0.518-0.42-0.938-0.938-0.938s-0.938,0.42-0.938,0.938v2.094h-7.775c-0.518,0-0.938,0.419-0.938,0.938
			c0,0.518,0.42,0.938,0.938,0.938h12.727c-0.256,1.926-1.133,6.373-4.012,10.441c-1.271-1.788-2.145-3.628-2.739-5.261
			c-0.177-0.486-0.716-0.736-1.202-0.56s-0.736,0.715-0.56,1.202c0.316,0.867,0.706,1.789,1.181,2.731
			c-0.232-0.05-0.475-0.076-0.723-0.076h-8.244c-0.518,0-0.938,0.42-0.938,0.938s0.42,0.938,0.938,0.938h8.244
			c0.876,0,1.588,0.712,1.588,1.588v25.254c0,0.877-0.712,1.588-1.588,1.588h-24.496c-0.249,0-0.487,0.1-0.663,0.275l-6.481,6.48
			v-5.818c0-0.518-0.419-0.938-0.938-0.938h-2.778c-0.875,0-1.588-0.711-1.588-1.588v-2.369c0-0.518-0.42-0.938-0.938-0.938
			S224,270.412,224,270.93v2.369c0,1.91,1.553,3.463,3.463,3.463h1.84v7.145c0,0.379,0.229,0.721,0.579,0.865
			c0.116,0.049,0.237,0.072,0.358,0.072c0.244,0,0.484-0.096,0.663-0.275l7.807-7.807h24.108c1.91,0,3.463-1.553,3.463-3.463
			v-13.963h7.008l7.807,7.807c0.18,0.18,0.42,0.275,0.663,0.275c0.121,0,0.243-0.023,0.358-0.072
			c0.351-0.145,0.579-0.486,0.579-0.865v-7.145h1.841c1.91,0,3.463-1.553,3.463-3.462v-11.431
			C288,243.925,287.58,243.506,287.063,243.506z"/>
		<path fill="#5E6C6D" d="M237.244,272.117l1.849-4.852h12.114l1.831,4.85c0.141,0.375,0.498,0.607,0.877,0.607
			c0.109,0,0.222-0.02,0.33-0.061c0.484-0.184,0.729-0.725,0.547-1.209l-8.269-21.911c-0.003-0.009-0.007-0.018-0.01-0.026
			c-0.223-0.542-0.746-0.893-1.333-0.893c0,0-0.001,0-0.001,0c-0.587,0-1.11,0.352-1.333,0.896
			c-0.003,0.007-0.005,0.014-0.008,0.021l-8.345,21.911c-0.185,0.482,0.059,1.025,0.542,1.209
			C236.518,272.846,237.06,272.602,237.244,272.117L237.244,272.117z M245.177,251.288l5.322,14.103h-10.692L245.177,251.288z"/>
	</g>
</g>
</svg>
