<?xml version="1.0" encoding="utf-8"?>
<!-- Generator: Adobe Illustrator 24.3.0, SVG Export Plug-In . SVG Version: 6.00 Build 0)  -->
<svg version="1.1" id="Capa_1" xmlns="http://www.w3.org/2000/svg" xmlns:xlink="http://www.w3.org/1999/xlink" x="0px" y="0px"
	 viewBox="0 0 130 130.4" style="enable-background:new 0 0 130 130.4;" xml:space="preserve">
<style type="text/css">
	.st0{fill:none;stroke:#D39D90;stroke-miterlimit:10;}
	.st1{fill:#5E6C6D;}
</style>
<circle class="st0" cx="65.2" cy="65.8" r="62.5"/>
<g>
	<g>
		<path class="st1" d="M74.3,90.8c-0.5,0-0.9,0.4-0.9,0.9V96c0,0.5,0.4,0.9,0.9,0.9c0.5,0,0.9-0.4,0.9-0.9v-4.3
			C75.2,91.2,74.8,90.8,74.3,90.8z"/>
		<path class="st1" d="M95.7,70.7l-5.2-9.2c-0.8-1.4-1.2-2.9-1.2-4.5v-2.7c0-11.8-9.5-21.3-21.1-21.3c-2.4,0-4.7,0.4-6.9,1.1
			l-0.1-0.4c-0.1-0.4-0.5-0.7-0.9-0.7h-7.8c-0.4,0-0.8,0.3-0.9,0.7L51,35.7c-0.1,0.5,0.2,1,0.7,1.2s1-0.2,1.2-0.7l0.4-1.4h6.4
			l2.3,8.5c0.1,0.3,0.2,0.5,0.5,0.6c0.3,0.2,0.6,0.3,0.9,0.5c0.2,0.1,0.5,0.2,0.7,0.1l8.5-2.2l3.2,5.5l-6.2,6.3
			c-0.2,0.2-0.3,0.4-0.3,0.7c0,0.2,0,0.4,0,0.5s0,0.3,0,0.5c0,0.3,0.1,0.5,0.3,0.7l6.2,6.3l-3.2,5.5l-8.5-2.2
			c-0.3-0.1-0.5,0-0.7,0.1c-0.3,0.2-0.6,0.4-0.9,0.5c-0.2,0.1-0.4,0.3-0.5,0.6l-2.3,8.5h-6.4l-2.3-8.5c-0.1-0.3-0.2-0.5-0.5-0.6
			c-0.3-0.2-0.6-0.3-0.9-0.5c-0.2-0.1-0.5-0.2-0.7-0.1l-8.5,2.2L37,62.8l6.2-6.3c0.2-0.2,0.3-0.4,0.3-0.7c0-0.2,0-0.4,0-0.5
			s0-0.3,0-0.5c0-0.3-0.1-0.5-0.3-0.7L37,47.8l3.2-5.5l8.5,2.2c0.3,0.1,0.5,0,0.7-0.1c0.3-0.2,0.6-0.4,0.9-0.5
			c0.2-0.1,0.4-0.3,0.5-0.6l0.8-2.8c0.1-0.5-0.2-1-0.7-1.2c-0.5-0.1-1,0.2-1.2,0.7l-0.7,2.5c-0.1,0.1-0.2,0.1-0.3,0.2L40,40.3
			c-0.4-0.1-0.8,0.1-1,0.4l-3.9,6.8c-0.2,0.4-0.2,0.8,0.1,1.1l6.4,6.5c0,0.1,0,0.1,0,0.2s0,0.1,0,0.2L35.2,62
			c-0.3,0.3-0.4,0.8-0.1,1.1l3.9,6.8c0.2,0.4,0.6,0.5,1,0.4l8.8-2.3c0.1,0.1,0.2,0.1,0.3,0.2l2.4,8.8c0.1,0.4,0.5,0.7,0.9,0.7h1v9.6
			c0,0.5,0.4,0.9,0.9,0.9s0.9-0.4,0.9-0.9v-9.6h4.9c0.4,0,0.8-0.3,0.9-0.7l2.4-8.8c0.1-0.1,0.2-0.1,0.3-0.2l8.8,2.3
			c0.4,0.1,0.8-0.1,1-0.4l3.9-6.8c0.2-0.4,0.2-0.8-0.1-1.1l-6.4-6.5c0-0.1,0-0.1,0-0.2s0-0.1,0-0.2l6.4-6.5c0.3-0.3,0.4-0.8,0.1-1.1
			l-3.9-6.8c-0.2-0.4-0.6-0.5-1-0.4L64,42.6c-0.1-0.1-0.2-0.1-0.3-0.2l-1.8-6.5c2-0.7,4.2-1.1,6.4-1.1h0c10.6,0,19.3,8.7,19.3,19.5
			V57c0,1.9,0.5,3.8,1.4,5.4l5.2,9.2c0.1,0.1,0,0.3,0,0.3s-0.1,0.2-0.3,0.2h-5.4c-0.5,0-0.9,0.4-0.9,0.9v7.2c0,2.3-1.8,4.1-4.1,4.1
			h-9.1c-0.5,0-0.9,0.4-0.9,0.9v2.1c0,0.5,0.4,0.9,0.9,0.9c0.5,0,0.9-0.4,0.9-0.9v-1.2h8.2c3.3,0,6-2.7,6-6V74h4.5
			c0.8,0,1.5-0.4,1.9-1.1C96.1,72.2,96.1,71.4,95.7,70.7L95.7,70.7z"/>
		<path class="st1" d="M54.4,90.8c-0.5,0-0.9,0.4-0.9,0.9V96c0,0.5,0.4,0.9,0.9,0.9s0.9-0.4,0.9-0.9v-4.3
			C55.4,91.2,55,90.8,54.4,90.8L54.4,90.8z"/>
		<path class="st1" d="M56.4,60.1c2.6,0,4.7-2.1,4.7-4.7s-2.1-4.7-4.7-4.7s-4.7,2.1-4.7,4.7C51.7,57.9,53.8,60.1,56.4,60.1
			L56.4,60.1z M56.4,52.5c1.6,0,2.9,1.3,2.9,2.9s-1.3,2.9-2.9,2.9s-2.9-1.3-2.9-2.9S54.8,52.5,56.4,52.5L56.4,52.5z"/>
		<path class="st1" d="M45.9,55.3c0,5.8,4.7,10.5,10.5,10.5s10.5-4.7,10.5-10.5s-4.7-10.5-10.5-10.5S45.9,49.5,45.9,55.3z
			 M56.4,46.7c4.8,0,8.7,3.9,8.7,8.7c0,4.8-3.9,8.7-8.7,8.7c-4.8,0-8.7-3.9-8.7-8.7S51.6,46.7,56.4,46.7z"/>
	</g>
</g>
</svg>
