<?xml version="1.0" encoding="utf-8"?>
<!-- Generator: Adobe Illustrator 16.0.0, SVG Export Plug-In . SVG Version: 6.00 Build 0)  -->
<!DOCTYPE svg PUBLIC "-//W3C//DTD SVG 1.1//EN" "http://www.w3.org/Graphics/SVG/1.1/DTD/svg11.dtd">
<svg version="1.1" id="Capa_1" xmlns="http://www.w3.org/2000/svg" xmlns:xlink="http://www.w3.org/1999/xlink" x="0px" y="0px"
	 width="64px" height="64px" viewBox="224 224 64 64" enable-background="new 224 224 64 64" xml:space="preserve">
<g>
	<g>
		<path fill="#5E6C6D" d="M264.793,281.864c-0.519,0-0.938,0.419-0.938,0.938v4.262c0,0.518,0.419,0.938,0.938,0.938
			c0.518,0,0.937-0.42,0.937-0.938v-4.262C265.729,282.283,265.311,281.864,264.793,281.864z"/>
		<path fill="#5E6C6D" d="M286.26,261.735l-5.198-9.184c-0.779-1.376-1.189-2.937-1.189-4.515v-2.702
			c0-11.759-9.479-21.329-21.131-21.334c-2.356,0.004-4.66,0.382-6.863,1.137l-0.124-0.449c-0.112-0.406-0.481-0.688-0.903-0.688
			h-7.829c-0.421,0-0.792,0.281-0.903,0.688l-0.577,2.088c-0.138,0.498,0.155,1.015,0.654,1.152s1.016-0.155,1.154-0.653
			l0.386-1.399h6.401l2.341,8.472c0.069,0.25,0.239,0.46,0.468,0.581c0.315,0.165,0.625,0.345,0.921,0.532
			c0.219,0.14,0.486,0.182,0.738,0.116l8.508-2.209l3.201,5.544l-6.17,6.267c-0.182,0.185-0.279,0.437-0.269,0.694
			c0.008,0.197,0.012,0.371,0.012,0.531s-0.004,0.334-0.012,0.53c-0.011,0.26,0.087,0.511,0.269,0.695l6.17,6.267l-3.201,5.545
			l-8.508-2.21c-0.251-0.065-0.519-0.023-0.738,0.116c-0.296,0.188-0.606,0.368-0.921,0.533c-0.229,0.12-0.398,0.33-0.468,0.58
			l-2.341,8.472h-6.401l-2.341-8.472c-0.069-0.25-0.239-0.46-0.468-0.58c-0.315-0.165-0.625-0.346-0.921-0.533
			c-0.219-0.14-0.487-0.182-0.738-0.116l-8.509,2.21l-3.201-5.545l6.169-6.267c0.182-0.185,0.279-0.437,0.269-0.695
			c-0.008-0.197-0.012-0.37-0.012-0.53s0.004-0.334,0.012-0.531c0.01-0.258-0.087-0.51-0.269-0.695l-6.169-6.266l3.201-5.544
			l8.509,2.209c0.251,0.065,0.519,0.023,0.738-0.116c0.296-0.188,0.606-0.367,0.921-0.532c0.229-0.121,0.399-0.331,0.468-0.581
			l0.785-2.842c0.138-0.499-0.155-1.016-0.654-1.153c-0.499-0.139-1.015,0.154-1.153,0.653l-0.68,2.459
			c-0.114,0.063-0.228,0.13-0.341,0.197l-8.813-2.288c-0.408-0.106-0.837,0.073-1.048,0.438l-3.914,6.78
			c-0.211,0.364-0.152,0.825,0.144,1.126l6.389,6.49c-0.001,0.066-0.001,0.132-0.001,0.195s0,0.128,0.001,0.195l-6.389,6.49
			c-0.296,0.3-0.355,0.761-0.144,1.126l3.914,6.78c0.211,0.365,0.64,0.545,1.048,0.439l8.813-2.289
			c0.113,0.067,0.227,0.134,0.341,0.197l2.425,8.775c0.112,0.407,0.482,0.688,0.904,0.688h1.009v9.617
			c0,0.519,0.42,0.938,0.938,0.938c0.518,0,0.938-0.419,0.938-0.938v-9.617h4.945c0.421,0,0.791-0.281,0.903-0.688l2.425-8.775
			c0.115-0.063,0.229-0.13,0.341-0.197l8.813,2.289c0.408,0.105,0.836-0.074,1.047-0.439l3.915-6.78
			c0.21-0.365,0.151-0.825-0.144-1.126l-6.39-6.49c0-0.067,0.001-0.132,0.001-0.195s-0.001-0.129-0.001-0.195l6.39-6.49
			c0.295-0.301,0.354-0.762,0.144-1.126l-3.915-6.78c-0.211-0.365-0.64-0.544-1.047-0.438l-8.813,2.288
			c-0.112-0.067-0.227-0.134-0.341-0.197l-1.8-6.516c2.037-0.712,4.169-1.073,6.353-1.073h0.01
			c10.617,0.005,19.255,8.733,19.255,19.459v2.702c0,1.901,0.496,3.781,1.433,5.438l5.199,9.183c0.08,0.143,0.033,0.265-0.002,0.325
			c-0.035,0.06-0.119,0.161-0.281,0.161h-5.411c-0.519,0-0.938,0.42-0.938,0.938v7.198c0,2.268-1.845,4.113-4.112,4.113h-9.091
			c-0.519,0-0.938,0.419-0.938,0.938v2.094c0,0.518,0.419,0.938,0.938,0.938c0.517,0,0.937-0.42,0.937-0.938v-1.157h8.154
			c3.301,0,5.988-2.686,5.988-5.987v-6.261h4.473c0.791,0,1.502-0.408,1.899-1.091C286.644,263.244,286.649,262.424,286.26,261.735
			L286.26,261.735z"/>
		<path fill="#5E6C6D" d="M244.968,281.866c-0.518,0-0.938,0.419-0.938,0.938v4.259c0,0.518,0.42,0.938,0.938,0.938
			c0.518,0,0.938-0.42,0.938-0.938v-4.259C245.906,282.285,245.486,281.866,244.968,281.866L244.968,281.866z"/>
		<path fill="#5E6C6D" d="M246.937,251.129c2.605,0,4.726-2.12,4.726-4.726c0-2.606-2.12-4.726-4.726-4.726
			c-2.606,0-4.726,2.119-4.726,4.726C242.21,249.009,244.331,251.129,246.937,251.129L246.937,251.129z M246.937,243.553
			c1.572,0,2.85,1.278,2.85,2.851s-1.278,2.851-2.85,2.851s-2.851-1.278-2.851-2.851S245.365,243.553,246.937,243.553
			L246.937,243.553z"/>
		<path fill="#5E6C6D" d="M236.402,246.404c0,5.809,4.726,10.534,10.534,10.534s10.534-4.726,10.534-10.534
			s-4.726-10.534-10.534-10.534S236.402,240.595,236.402,246.404z M246.937,237.744c4.774,0,8.659,3.884,8.659,8.659
			c0,4.774-3.885,8.659-8.659,8.659c-4.775,0-8.659-3.885-8.659-8.659S242.162,237.744,246.937,237.744z"/>
	</g>
</g>
</svg>
