<?xml version="1.0" encoding="utf-8"?>
<!-- Generator: Adobe Illustrator 16.0.0, SVG Export Plug-In . SVG Version: 6.00 Build 0)  -->
<!DOCTYPE svg PUBLIC "-//W3C//DTD SVG 1.1//EN" "http://www.w3.org/Graphics/SVG/1.1/DTD/svg11.dtd">
<svg version="1.1" id="Layer_1" xmlns="http://www.w3.org/2000/svg" xmlns:xlink="http://www.w3.org/1999/xlink" x="0px" y="0px"
	 width="20px" height="20px" viewBox="331 331 20 20" enable-background="new 331 331 20 20" xml:space="preserve">
<g>
	<path fill="#F6F6F6" d="M341,331.99c3.335,0,6.045,2.712,6.045,6.045c0,3.984-6.039,11.347-6.039,11.347s-6.051-7.157-6.051-11.347
		C334.955,334.702,337.667,331.99,341,331.99 M341,340.559c0.66,0,1.321-0.251,1.825-0.754c1.005-1.005,1.005-2.642,0-3.648
		c-0.489-0.487-1.135-0.755-1.825-0.755c-0.689,0-1.337,0.268-1.823,0.755c-1.007,1.006-1.007,2.643,0,3.648
		C339.679,340.307,340.34,340.559,341,340.559 M341,330.99c-3.885,0-7.045,3.161-7.045,7.045c0,4.504,6.03,11.689,6.287,11.993
		l0.775,0.917l0.762-0.929c0.641-0.781,6.266-7.762,6.266-11.981C348.045,334.15,344.885,330.99,341,330.99L341,330.99z
		 M341,339.559c-0.423,0-0.819-0.164-1.116-0.46c-0.299-0.298-0.462-0.695-0.462-1.117c0-0.423,0.164-0.82,0.462-1.118
		s0.694-0.462,1.116-0.462c0.428,0,0.814,0.16,1.12,0.464c0.613,0.614,0.613,1.617-0.002,2.232
		C341.82,339.395,341.423,339.559,341,339.559L341,339.559z"/>
</g>
</svg>
