<?xml version="1.0" encoding="utf-8"?>
<!-- Generator: Adobe Illustrator 16.0.0, SVG Export Plug-In . SVG Version: 6.00 Build 0)  -->
<!DOCTYPE svg PUBLIC "-//W3C//DTD SVG 1.1//EN" "http://www.w3.org/Graphics/SVG/1.1/DTD/svg11.dtd">
<svg version="1.1" id="Layer_1" xmlns="http://www.w3.org/2000/svg" xmlns:xlink="http://www.w3.org/1999/xlink" x="0px" y="0px"
	 width="20px" height="20px" viewBox="246 246 20 20" enable-background="new 246 246 20 20" xml:space="preserve">
<g>
	<path fill="#F6F6F6" d="M263.044,248.899c-1.88-1.874-4.382-2.906-7.044-2.907c-2.657,0-5.163,1.031-7.056,2.905
		c-1.896,1.876-2.941,4.369-2.944,7.012v0.003v0.002c0,1.598,0.42,3.212,1.218,4.684l-1.191,5.412l5.475-1.244
		c1.386,0.699,2.934,1.066,4.495,1.067H256c2.657,0,5.163-1.031,7.054-2.904c1.899-1.878,2.944-4.369,2.946-7.013
		C266,253.291,264.951,250.798,263.044,248.899z M256,264.27h-0.003c-1.402-0.001-2.79-0.353-4.016-1.018l-0.259-0.141l-3.64,0.829
		l0.791-3.594l-0.152-0.264c-0.758-1.307-1.159-2.75-1.159-4.172c0.003-4.606,3.788-8.357,8.437-8.357
		c2.246,0.001,4.357,0.871,5.942,2.451c1.61,1.604,2.496,3.703,2.496,5.91C264.436,260.523,260.65,264.27,256,264.27z"/>
	<path fill="#F6F6F6" d="M253.278,251.538h-0.438c-0.153,0-0.401,0.057-0.61,0.284c-0.21,0.229-0.8,0.78-0.8,1.902
		c0,1.121,0.819,2.205,0.934,2.357c0.115,0.152,1.583,2.527,3.907,3.44c1.934,0.76,2.326,0.609,2.745,0.571
		c0.42-0.038,1.354-0.553,1.544-1.084c0.189-0.532,0.189-0.989,0.134-1.084c-0.058-0.095-0.209-0.152-0.439-0.267
		c-0.229-0.113-1.349-0.675-1.559-0.75c-0.21-0.076-0.362-0.114-0.516,0.113c-0.152,0.229-0.601,0.756-0.734,0.908
		s-0.268,0.171-0.495,0.057c-0.23-0.114-0.958-0.359-1.832-1.136c-0.681-0.604-1.153-1.375-1.287-1.603
		c-0.133-0.229-0.013-0.352,0.101-0.466c0.103-0.102,0.243-0.241,0.357-0.374c0.114-0.134,0.147-0.229,0.223-0.381
		c0.076-0.151,0.038-0.285-0.019-0.398c-0.058-0.114-0.498-1.242-0.701-1.693h0.001
		C253.622,251.558,253.441,251.544,253.278,251.538z"/>
</g>
</svg>
