<?xml version="1.0" encoding="utf-8"?>
<!-- Generator: Adobe Illustrator 16.0.0, SVG Export Plug-In . SVG Version: 6.00 Build 0)  -->
<!DOCTYPE svg PUBLIC "-//W3C//DTD SVG 1.1//EN" "http://www.w3.org/Graphics/SVG/1.1/DTD/svg11.dtd">
<svg version="1.1" id="Layer_1" xmlns="http://www.w3.org/2000/svg" xmlns:xlink="http://www.w3.org/1999/xlink" x="0px" y="0px"
	 width="24px" height="24px" viewBox="244 244 24 24" enable-background="new 244 244 24 24" xml:space="preserve">
<path fill="#F6F6F6" d="M256,244c-6.626,0-12,5.374-12,12c0,6.626,5.374,12,12,12c6.627,0,12-5.374,12-12
	C268,249.374,262.627,244,256,244z M252.513,262.141h-2.922v-8.792h2.922V262.141z M251.052,252.148h-0.019
	c-0.981,0-1.615-0.675-1.615-1.519c0-0.863,0.653-1.519,1.653-1.519c1,0,1.615,0.656,1.634,1.519
	C252.705,251.472,252.071,252.148,251.052,252.148z M263.051,262.141h-2.922v-4.704c0-1.182-0.424-1.988-1.48-1.988
	c-0.808,0-1.288,0.544-1.5,1.069c-0.077,0.188-0.096,0.45-0.096,0.713v4.91h-2.922c0,0,0.038-7.968,0-8.792h2.922v1.245
	c0.389-0.599,1.083-1.451,2.634-1.451c1.923,0,3.364,1.257,3.364,3.957V262.141z"/>
</svg>
