<?xml version="1.0" encoding="utf-8"?>
<!-- Generator: Adobe Illustrator 16.0.0, SVG Export Plug-In . SVG Version: 6.00 Build 0)  -->
<!DOCTYPE svg PUBLIC "-//W3C//DTD SVG 1.1//EN" "http://www.w3.org/Graphics/SVG/1.1/DTD/svg11.dtd">
<svg version="1.1" id="Capa_1" xmlns="http://www.w3.org/2000/svg" xmlns:xlink="http://www.w3.org/1999/xlink" x="0px" y="0px"
	 width="24px" height="24px" viewBox="36.875 36.875 24 24" enable-background="new 36.875 36.875 24 24" xml:space="preserve">
<g>
	<g>
		<path fill="#F6F6F6" d="M46.533,46.384c0-1.132-0.77-1.132-0.77-1.132h-0.408h-2.761v2.429h2.972
			C46.08,47.681,46.533,47.517,46.533,46.384z"/>
		<path fill="#F6F6F6" d="M45.763,49.359h-3.169v2.91h3.022c0.455-0.014,1.294-0.155,1.294-1.414
			C46.911,49.344,45.763,49.359,45.763,49.359z"/>
		<path fill="#F6F6F6" d="M53.876,47.681c-1.682,0-1.916,1.678-1.916,1.678h3.575C55.536,49.359,55.558,47.681,53.876,47.681z"/>
		<path fill="#F6F6F6" d="M48.875,36.875c-6.627,0-12,5.373-12,12c0,6.627,5.373,12,12,12c6.627,0,12-5.373,12-12
			C60.875,42.248,55.502,36.875,48.875,36.875z M51.491,43.958h4.491v1.34h-4.491V43.958z M49.221,50.989
			c0,3.323-3.458,3.214-3.458,3.214h-3.169h-0.093h-2.403V43.316h2.403h0.093h3.169c1.721,0,3.081,0.951,3.081,2.898
			c0,1.948-1.662,2.072-1.662,2.072C49.372,48.287,49.221,50.989,49.221,50.989z M53.897,52.706c1.81,0,1.745-1.171,1.745-1.171
			h1.916c0,3.108-3.725,2.896-3.725,2.896c-4.471,0-4.184-4.162-4.184-4.162s-0.004-4.182,4.183-4.182
			c4.406,0,3.789,4.725,3.789,4.725h-5.641C51.981,52.834,53.897,52.706,53.897,52.706z"/>
	</g>
</g>
</svg>
