<?xml version="1.0" encoding="utf-8"?>
<!-- Generator: Adobe Illustrator 16.0.0, SVG Export Plug-In . SVG Version: 6.00 Build 0)  -->
<!DOCTYPE svg PUBLIC "-//W3C//DTD SVG 1.1//EN" "http://www.w3.org/Graphics/SVG/1.1/DTD/svg11.dtd">
<svg version="1.1" id="Layer_1" xmlns="http://www.w3.org/2000/svg" xmlns:xlink="http://www.w3.org/1999/xlink" x="0px" y="0px"
	 width="71.303px" height="66.84px" viewBox="0 0 71.303 66.84" enable-background="new 0 0 71.303 66.84" xml:space="preserve">
<g>
	<g>
		<path fill-rule="evenodd" clip-rule="evenodd" fill="#D39D90" d="M53.597,57.179c-2-1.157-3.729-2.158-5.617-3.25
			c4.841-8.404,9.586-16.641,14.432-25.054c-13.434-7.762-26.74-15.451-40.236-23.25C23.263,3.74,24.292,1.96,25.425,0
			c15.289,8.828,30.459,17.587,45.878,26.491C65.386,36.744,59.554,46.853,53.597,57.179z"/>
		<path fill-rule="evenodd" clip-rule="evenodd" fill="#D39D90" d="M49.097,61.209c-1.099,1.92-2.092,3.655-3.223,5.63
			C30.563,58.003,15.383,49.241,0,40.363C5.905,30.157,11.747,20.061,17.681,9.802c1.883,1.072,3.623,2.062,5.629,3.203
			c-4.788,8.311-9.525,16.534-14.393,24.981C22.351,45.75,35.636,53.429,49.097,61.209z"/>
		<path fill-rule="evenodd" clip-rule="evenodd" fill="#D39D90" d="M34.229,27.24c2.402,1.418,4.617,2.725,7.055,4.164
			c-1.462,2.51-2.852,4.897-4.33,7.439c-2.429-1.431-4.692-2.765-7.096-4.181C31.362,32.107,32.767,29.724,34.229,27.24z"/>
	</g>
</g>
</svg>
