<svg id="Layer_1" data-name="Layer 1" xmlns="http://www.w3.org/2000/svg" viewBox="0 0 317.42 45.95"><defs><style>.cls-1{fill:#d39d90;fill-rule:evenodd;}.cls-2{fill:#fff;}</style></defs><path class="cls-1" d="M38.84,42.67,35,40.43C38.31,34.66,41.57,29,44.9,23.21l-27.66-16,2.24-3.87L51,21.57C47,28.62,42.94,35.57,38.84,42.67Z" transform="translate(-2 -3.36)"/><path class="cls-1" d="M35.75,45.44l-2.22,3.87L2,31.11l12.15-21L18,12.3C14.73,18,11.48,23.67,8.13,29.47Z" transform="translate(-2 -3.36)"/><path class="cls-1" d="M25.53,22.09,30.38,25c-1,1.72-2,3.37-3,5.11l-4.88-2.87C23.56,25.43,24.52,23.79,25.53,22.09Z" transform="translate(-2 -3.36)"/><path class="cls-2" d="M71.13,34.29h7.59V38H66.51v-23h4.62Z" transform="translate(-2 -3.36)"/><path class="cls-2" d="M98.91,19.67V38H94.26V35.64a6.16,6.16,0,0,1-2.33,1.87,7.19,7.19,0,0,1-3.12.67,7.78,7.78,0,0,1-3.79-.9,6.44,6.44,0,0,1-2.59-2.68,8.77,8.77,0,0,1-.94-4.2V19.67h4.62V29.74a4.73,4.73,0,0,0,1.09,3.35,3.84,3.84,0,0,0,3,1.17,3.91,3.91,0,0,0,3-1.17,4.73,4.73,0,0,0,1.09-3.35V19.67Z" transform="translate(-2 -3.36)"/><path class="cls-2" d="M103.43,23.85a8.27,8.27,0,0,1,3.2-3.3,9.28,9.28,0,0,1,4.69-1.17,9,9,0,0,1,5.62,1.7,8.25,8.25,0,0,1,3,4.76h-5A3.66,3.66,0,0,0,113.61,24a3.89,3.89,0,0,0-2.33-.68,3.8,3.8,0,0,0-3.13,1.44A6.32,6.32,0,0,0,107,28.81a6.27,6.27,0,0,0,1.16,4,3.8,3.8,0,0,0,3.13,1.44A3.52,3.52,0,0,0,115,31.78h5a8.46,8.46,0,0,1-3,4.72,8.84,8.84,0,0,1-5.61,1.75,9.28,9.28,0,0,1-4.69-1.17,8.27,8.27,0,0,1-3.2-3.3,10.28,10.28,0,0,1-1.15-5A10.24,10.24,0,0,1,103.43,23.85Z" transform="translate(-2 -3.36)"/><path class="cls-2" d="M123.64,16.72a2.7,2.7,0,0,1,0-3.86,3,3,0,0,1,4.06,0,2.7,2.7,0,0,1,0,3.86,3,3,0,0,1-4.06,0Zm4.31,3V38h-4.62V19.67Z" transform="translate(-2 -3.36)"/><path class="cls-2" d="M132.42,23.83a7.9,7.9,0,0,1,7.24-4.45,7.45,7.45,0,0,1,3.58.82,7.3,7.3,0,0,1,2.46,2.08V19.67h4.65V38H145.7V35.28a7,7,0,0,1-2.46,2.13,7.54,7.54,0,0,1-3.61.84,7.78,7.78,0,0,1-4.21-1.19,8.22,8.22,0,0,1-3-3.35,10.69,10.69,0,0,1-1.11-5A10.55,10.55,0,0,1,132.42,23.83ZM145,25.93a4.67,4.67,0,0,0-1.78-1.85,4.79,4.79,0,0,0-2.41-.65,4.68,4.68,0,0,0-2.38.63,4.77,4.77,0,0,0-1.76,1.83,5.68,5.68,0,0,0-.68,2.86,5.79,5.79,0,0,0,.68,2.88,4.81,4.81,0,0,0,1.78,1.9,4.5,4.5,0,0,0,2.36.66A4.7,4.7,0,0,0,145,31.7a5.93,5.93,0,0,0,.66-2.89A5.89,5.89,0,0,0,145,25.93Z" transform="translate(-2 -3.36)"/><path class="cls-2" d="M170.28,21.47a7.92,7.92,0,0,1,2,5.76V38h-4.62V27.86a4.71,4.71,0,0,0-1.09-3.35,3.84,3.84,0,0,0-3-1.17,4,4,0,0,0-3,1.17,4.71,4.71,0,0,0-1.1,3.35V38h-4.62V19.67h4.62V22a6.31,6.31,0,0,1,2.36-1.86,7.33,7.33,0,0,1,3.15-.68A7.06,7.06,0,0,1,170.28,21.47Z" transform="translate(-2 -3.36)"/><path class="cls-2" d="M176.6,23.83a7.9,7.9,0,0,1,7.24-4.45,7.45,7.45,0,0,1,3.58.82,7.3,7.3,0,0,1,2.46,2.08V19.67h4.65V38h-4.65V35.28a7,7,0,0,1-2.46,2.13,7.54,7.54,0,0,1-3.61.84,7.78,7.78,0,0,1-4.21-1.19,8.22,8.22,0,0,1-3-3.35,10.69,10.69,0,0,1-1.11-5A10.55,10.55,0,0,1,176.6,23.83Zm12.62,2.1a4.67,4.67,0,0,0-1.78-1.85,4.76,4.76,0,0,0-2.41-.65,4.68,4.68,0,0,0-2.38.63,4.77,4.77,0,0,0-1.76,1.83,5.68,5.68,0,0,0-.68,2.86,5.79,5.79,0,0,0,.68,2.88,4.81,4.81,0,0,0,1.78,1.9,4.5,4.5,0,0,0,2.36.66,4.7,4.7,0,0,0,4.19-2.49,5.93,5.93,0,0,0,.66-2.89A5.89,5.89,0,0,0,189.22,25.93Z" transform="translate(-2 -3.36)"/><path class="cls-2" d="M221.12,14.92v3.73h-9.6v5.91h7.36v3.66h-7.36V38H206.9v-23Z" transform="translate(-2 -3.36)"/><path class="cls-2" d="M231.34,20.23a6.44,6.44,0,0,1,3.28-.82v4.85H233.4a4.67,4.67,0,0,0-3.28,1A4.71,4.71,0,0,0,229,28.85V38h-4.62V19.67H229v2.84A6.44,6.44,0,0,1,231.34,20.23Z" transform="translate(-2 -3.36)"/><path class="cls-2" d="M237.64,23.83a7.9,7.9,0,0,1,7.24-4.45,7.45,7.45,0,0,1,3.58.82,7.3,7.3,0,0,1,2.46,2.08V19.67h4.65V38h-4.65V35.28a6.86,6.86,0,0,1-2.46,2.13,7.52,7.52,0,0,1-3.61.84,7.81,7.81,0,0,1-4.21-1.19,8.29,8.29,0,0,1-3-3.35,10.69,10.69,0,0,1-1.11-5A10.55,10.55,0,0,1,237.64,23.83Zm12.62,2.1a4.6,4.6,0,0,0-1.78-1.85,4.76,4.76,0,0,0-2.41-.65,4.68,4.68,0,0,0-2.38.63,4.77,4.77,0,0,0-1.76,1.83,5.79,5.79,0,0,0-.68,2.86,5.89,5.89,0,0,0,.68,2.88,4.81,4.81,0,0,0,1.78,1.9,4.53,4.53,0,0,0,2.36.66,4.75,4.75,0,0,0,2.41-.64,4.67,4.67,0,0,0,1.78-1.85,5.93,5.93,0,0,0,.66-2.89A5.89,5.89,0,0,0,250.26,25.93Z" transform="translate(-2 -3.36)"/><path class="cls-2" d="M275.5,21.47a7.92,7.92,0,0,1,2,5.76V38h-4.62V27.86a4.71,4.71,0,0,0-1.09-3.35,3.83,3.83,0,0,0-3-1.17,3.94,3.94,0,0,0-3,1.17,4.67,4.67,0,0,0-1.11,3.35V38h-4.62V19.67h4.62V22a6.39,6.39,0,0,1,2.36-1.86,7.33,7.33,0,0,1,3.15-.68A7.06,7.06,0,0,1,275.5,21.47Z" transform="translate(-2 -3.36)"/><path class="cls-2" d="M281.87,23.85a8.2,8.2,0,0,1,3.2-3.3,9.24,9.24,0,0,1,4.68-1.17,9,9,0,0,1,5.63,1.7,8.3,8.3,0,0,1,3,4.76h-5A3.64,3.64,0,0,0,292.05,24a3.89,3.89,0,0,0-2.33-.68,3.8,3.8,0,0,0-3.13,1.44,6.32,6.32,0,0,0-1.16,4.07,6.27,6.27,0,0,0,1.16,4,3.8,3.8,0,0,0,3.13,1.44,3.5,3.5,0,0,0,3.66-2.51h5a8.42,8.42,0,0,1-3,4.72,8.8,8.8,0,0,1-5.61,1.75,9.24,9.24,0,0,1-4.68-1.17,8.2,8.2,0,0,1-3.2-3.3,10.28,10.28,0,0,1-1.16-5A10.24,10.24,0,0,1,281.87,23.85Z" transform="translate(-2 -3.36)"/><path class="cls-2" d="M305.13,37.08a8.48,8.48,0,0,1-3.32-3.32,10,10,0,0,1-1.2-4.95,9.68,9.68,0,0,1,1.24-4.95,8.54,8.54,0,0,1,3.38-3.31,10.37,10.37,0,0,1,9.57,0,8.6,8.6,0,0,1,3.38,3.31,9.78,9.78,0,0,1,1.24,4.95,9.6,9.6,0,0,1-1.27,4.95,8.89,8.89,0,0,1-3.43,3.32,10,10,0,0,1-4.84,1.17A9.64,9.64,0,0,1,305.13,37.08Zm7.11-3.47A4.35,4.35,0,0,0,314,31.78a6.15,6.15,0,0,0,.66-3,5.54,5.54,0,0,0-1.37-4A4.53,4.53,0,0,0,310,23.4a4.42,4.42,0,0,0-3.32,1.4,5.61,5.61,0,0,0-1.34,4,5.66,5.66,0,0,0,1.31,4,4.27,4.27,0,0,0,3.28,1.4A4.77,4.77,0,0,0,312.24,33.61Z" transform="translate(-2 -3.36)"/></svg>