<svg id="Capa_1" data-name="Capa 1" xmlns="http://www.w3.org/2000/svg" viewBox="0 0 380 62"><defs><style>.cls-1{fill:#e2e2e2;}.cls-2{fill:#d39d90;}</style></defs><rect class="cls-1" width="380" height="62"/><path class="cls-2" d="M14,15.71q3.26-5.42,11.21-5.42t11.22,5.42q3.25,5.43,3.25,15.06T36.45,46q-3.26,5.49-11.22,5.48T14,46q-3.25-5.48-3.26-15.22T14,15.71Zm18.87,7.43a10.26,10.26,0,0,0-2.37-5.09,6.79,6.79,0,0,0-5.29-2,6.76,6.76,0,0,0-5.28,2,10.26,10.26,0,0,0-2.37,5.09A42.25,42.25,0,0,0,17,30.77a46.7,46.7,0,0,0,.55,7.85,9.81,9.81,0,0,0,2.37,5.12,6.89,6.89,0,0,0,5.31,1.95,6.91,6.91,0,0,0,5.32-1.95,9.87,9.87,0,0,0,2.36-5.12,45.55,45.55,0,0,0,.56-7.85A42.25,42.25,0,0,0,32.89,23.14Z"/><path class="cls-2" d="M45.6,16.8V11H57.18V51.58h-6.4V16.8Z"/></svg>